<svg width="17" height="16" viewBox="0 0 17 16" fill="none" xmlns="http://www.w3.org/2000/svg">
<path d="M12.7194 5.33333C12.7194 4.27247 12.2851 3.25505 11.512 2.5049C10.7389 1.75476 9.69043 1.33333 8.59715 1.33333C7.50387 1.33333 6.45537 1.75476 5.6823 2.5049C4.90923 3.25505 4.47493 4.27247 4.47493 5.33333C4.47493 10 2.41382 11.3333 2.41382 11.3333H14.7805C14.7805 11.3333 12.7194 10 12.7194 5.33333Z" stroke="#59666F" stroke-linecap="round" stroke-linejoin="round"/>
<path d="M9.78584 14C9.66505 14.2021 9.49168 14.3698 9.28308 14.4864C9.07449 14.6029 8.83799 14.6643 8.59727 14.6643C8.35654 14.6643 8.12004 14.6029 7.91145 14.4864C7.70285 14.3698 7.52948 14.2021 7.40869 14" stroke="#59666F" stroke-linecap="round" stroke-linejoin="round"/>
</svg>
